# xmcd
#
# Track frame offsets: 
#        150
#        21155
#        42830
#        73415
#        84260
#        104330
#        129607
#        146737
#        171447
#        184955
#        201785
#        216155
#        230915
#        254800
#        284765
#        304285
#        319660
#
# Disc length: 4539 seconds
#
# Revision: 28
# Processed by: cddbd v1.5.2PL0 Copyright (c) Steve Scherf et al.
# Submitted via: ExactAudioCopyFreeDBPlugin 1.0
#
DISCID=1711b911
DTITLE=Stevie Ray Vaughan - SRV [box set]
DYEAR=2000
DGENRE=Blues
TTITLE0=Lookin' Out the Window (live)
TTITLE1=Look at Little Sister (live)
TTITLE2=Willie the Wimp (live)
TTITLE3=The House is Rockin'
TTITLE4=Crossfire (live)
TTITLE5=Wall of Denial
TTITLE6=Dirty Pool (from the Timothy White radio program)
TTITLE7=Goin' Down (ft Jeff Beck) (live)
TTITLE8=Rude Mood (live from MTV Unplugged)
TTITLE9=Pride and Joy (live from MTV Unplugged)
TTITLE10=Testify (live from MTV Unplugged)
TTITLE11=Long Way from Home (as The Vaughan Brothers)
TTITLE12=Tightrope (live)
TTITLE13=Cold Shot (live)
TTITLE14=The Things (That) I Used to Do (live)
TTITLE15=Let Me Love You Baby (live)
TTITLE16=Leave My Girl Alone (live)
EXTD=Epic/Legacy - E4K 65714 (3CD+DVD]\nRelease Date: 2000-11-21\nUPC 
EXTD=074646571422 YEAR: 2000
EXTT0=
EXTT1=
EXTT2=
EXTT3=
EXTT4=
EXTT5=
EXTT6=
EXTT7=
EXTT8=
EXTT9=
EXTT10=
EXTT11=
EXTT12=
EXTT13=
EXTT14=
EXTT15=
EXTT16=
PLAYORDER=
